<?xml version="1.0" standalone="no"?>
<!DOCTYPE svg PUBLIC "-//W3C//DTD SVG 20010904//EN"
 "http://www.w3.org/TR/2001/REC-SVG-20010904/DTD/svg10.dtd">
<svg version="1.0" xmlns="http://www.w3.org/2000/svg"
 width="732.000000pt" height="732.000000pt" viewBox="0 0 732.000000 732.000000"
 preserveAspectRatio="xMidYMid meet">

<g transform="translate(0.000000,732.000000) scale(0.100000,-0.100000)"
fill="#000000" stroke="none">
<path d="M3488 6015 c-107 -20 -156 -41 -563 -233 -620 -293 -1942 -916 -2365
-1115 -223 -104 -421 -200 -440 -212 -51 -32 -97 -88 -109 -132 -7 -25 -11
-240 -11 -604 l0 -566 23 -44 c13 -24 43 -59 68 -77 73 -55 3261 -1671 3364
-1706 86 -29 97 -30 265 -30 169 -1 178 0 260 29 73 26 707 355 1625 845 385
206 1324 699 1454 765 164 82 202 111 235 176 l26 53 0 560 c0 340 -4 575 -10
597 -12 43 -70 112 -119 143 -20 13 -133 68 -251 123 -199 93 -935 439 -1760
828 -917 432 -1212 566 -1287 586 -103 27 -299 34 -405 14z m364 -141 c62 -15
495 -216 1838 -849 289 -136 557 -262 595 -280 39 -18 189 -89 335 -157 146
-69 321 -151 390 -182 155 -71 186 -102 163 -161 -3 -10 -170 -98 -397 -210
-215 -106 -584 -288 -821 -405 -236 -117 -502 -247 -590 -290 -88 -43 -349
-171 -580 -285 -602 -297 -799 -392 -853 -411 -63 -22 -286 -31 -378 -15 -110
19 -198 54 -467 185 -139 68 -448 219 -687 336 -239 117 -471 229 -515 250
-44 20 -264 126 -490 235 -494 238 -579 279 -945 452 -157 74 -291 140 -299
148 -17 17 -17 60 0 82 8 9 37 26 64 38 28 13 336 158 685 322 2116 1000 2500
1179 2551 1194 95 27 299 29 401 3z m-3414 -1930 c802 -382 1654 -793 2332
-1124 261 -128 504 -243 540 -257 183 -70 381 -97 538 -74 141 21 87 -3 1152
521 371 183 770 379 885 435 116 56 452 222 749 369 296 146 542 266 547 266
15 0 11 -880 -4 -910 -10 -19 -182 -114 -712 -393 -385 -202 -1049 -553 -1475
-779 -1072 -570 -1046 -557 -1150 -567 -124 -13 -290 1 -373 33 -61 23 -305
145 -802 401 -88 45 -353 180 -590 300 -236 120 -511 259 -610 310 -99 51
-430 219 -736 374 -306 155 -564 290 -573 300 -15 17 -17 63 -19 475 -1 266 2
456 7 456 5 0 137 -61 294 -136z"/>
<path d="M3253 5134 c-511 -55 -886 -200 -1123 -434 -132 -130 -197 -256 -207
-400 -23 -344 323 -671 896 -846 279 -85 554 -119 896 -110 343 8 578 46 848
137 376 126 621 303 736 531 114 225 67 452 -139 659 -238 241 -669 409 -1185
464 -172 18 -552 18 -722 -1z m805 -138 c552 -83 907 -273 1019 -546 85 -207
-89 -460 -429 -625 -266 -130 -598 -195 -993 -195 -416 0 -769 74 -1060 222
-117 59 -191 112 -270 192 -218 221 -181 480 100 681 187 134 510 242 820 275
61 6 119 13 130 15 56 10 589 -5 683 -19z m-1992 -630 c-18 -117 51 -288 166
-411 194 -207 565 -364 1023 -432 189 -28 641 -25 835 5 357 56 627 155 820
299 159 120 282 293 309 438 14 70 26 10 13 -63 -42 -246 -298 -463 -702 -596
-259 -85 -471 -122 -770 -132 -666 -23 -1260 155 -1556 469 -130 137 -177 259
-154 398 13 75 26 97 16 25z"/>
<path d="M3510 4659 c-238 -26 -431 -124 -494 -251 -84 -169 57 -349 331 -418
115 -30 282 -42 402 -30 327 34 531 166 531 344 0 78 -26 131 -96 195 -94 86
-241 141 -429 161 -102 11 -139 11 -245 -1z m390 -159 c145 -42 260 -125 260
-188 0 -78 -123 -161 -295 -199 -115 -26 -362 -25 -465 1 -141 35 -243 94
-276 158 -41 80 68 176 258 227 109 29 110 30 283 26 129 -2 175 -7 235 -25z"/>
<path d="M2070 5120 c-27 -27 -25 -56 6 -87 20 -20 31 -24 57 -19 92 19 86
126 -8 126 -22 0 -43 -8 -55 -20z"/>
<path d="M5157 3542 c-56 -62 41 -146 111 -96 15 10 22 25 22 49 0 24 -7 39
-22 49 -31 22 -91 20 -111 -2z"/>
<path d="M4795 2742 c-216 -110 -252 -132 -270 -162 -18 -32 -20 -53 -20 -258
l0 -224 28 -24 c15 -13 40 -24 54 -24 23 0 328 151 491 243 81 45 82 51 82
312 0 212 -1 226 -20 245 -40 40 -77 28 -345 -108z m231 -318 c-3 -9 -90 -64
-101 -64 -2 0 -5 57 -7 128 -2 70 -7 134 -11 142 -6 12 8 23 55 46 l63 31 3
-135 c1 -75 1 -141 -2 -148z m-246 7 l0 -149 -70 -36 -71 -37 3 151 3 152 65
34 c36 19 66 34 68 34 1 0 2 -67 2 -149z"/>
</g>
</svg>
