<?xml version="1.0" standalone="no"?>
<!DOCTYPE svg PUBLIC "-//W3C//DTD SVG 20010904//EN"
 "http://www.w3.org/TR/2001/REC-SVG-20010904/DTD/svg10.dtd">
<svg version="1.0" xmlns="http://www.w3.org/2000/svg"
 width="1024.000000pt" height="1024.000000pt" viewBox="0 0 1024.000000 1024.000000"
 preserveAspectRatio="xMidYMid meet">

<g transform="translate(-105.000000,1100.000000) scale(0.1240000,-0.120000)"
fill="#000000" stroke="#000000" stroke-width="130">
<path d="M997 7790 c-37 -29 -52 -83 -38 -131 19 -64 35 -69 211 -69 l156 0
17 -91 c43 -227 145 -364 345 -464 143 -71 188 -78 543 -83 l317 -3 -32 -61
c-26 -52 -32 -74 -35 -150 -3 -80 0 -94 25 -146 30 -62 154 -191 321 -335 l90
-79 12 -105 c21 -181 76 -335 173 -483 54 -82 175 -208 398 -414 96 -88 309
-289 475 -445 165 -156 347 -325 404 -374 241 -207 580 -435 991 -667 207
-116 332 -214 557 -433 l132 -129 -40 -50 c-64 -81 -59 -100 57 -219 l96 -100
-49 -52 c-54 -57 -68 -86 -59 -121 5 -21 995 -1016 1099 -1105 68 -58 130 -52
162 16 34 72 41 64 -438 539 -243 242 -473 469 -510 505 l-68 64 159 170 c88
94 347 361 577 595 229 234 469 482 533 553 64 70 119 127 123 127 12 0 627
-600 829 -809 177 -182 188 -191 224 -191 57 0 96 43 96 106 0 46 -2 49 -107
158 -116 119 -694 690 -858 847 -200 191 -207 193 -291 103 -51 -56 -52 -56
-86 -45 -19 6 -53 30 -75 54 -67 69 -104 160 -124 307 -17 128 -76 391 -116
515 -46 143 -88 251 -183 465 -95 213 -144 352 -166 468 -22 118 -15 308 21
517 31 186 31 282 -3 357 l-20 47 626 3 c609 4 629 4 705 26 126 35 211 85
308 182 75 75 94 100 137 191 28 57 59 134 68 172 l16 67 138 0 138 0 26 31
c42 50 29 151 -23 179 -14 7 -1286 10 -3989 10 -3964 0 -3969 0 -3995 -20z
m7479 -237 c-12 -65 -70 -175 -124 -234 -28 -31 -77 -70 -110 -87 -126 -67
139 -62 -3242 -62 -2685 0 -3073 2 -3123 15 -118 31 -208 93 -267 186 -34 51
-70 154 -70 195 l0 24 3471 0 3471 0 -6 -37z m-2384 -660 c-149 -173 -222
-366 -222 -587 0 -44 11 -175 25 -291 30 -254 31 -326 6 -381 -30 -65 -109
-114 -187 -114 -67 0 -410 131 -677 258 -357 171 -661 359 -1067 659 -233 173
-506 367 -639 457 l-84 56 1447 0 1447 0 -49 -57z m-3151 -19 c127 -38 288
-143 809 -529 400 -297 693 -486 985 -636 413 -213 791 -366 950 -385 111 -14
244 37 326 123 111 117 124 202 85 541 -41 351 -33 472 40 622 28 56 58 95
118 156 97 96 137 117 232 122 125 7 204 -48 204 -143 0 -22 -12 -110 -26
-195 -31 -191 -42 -427 -24 -537 14 -87 73 -273 127 -396 194 -447 268 -659
309 -876 14 -75 34 -181 44 -236 11 -55 31 -129 44 -164 l26 -64 -493 -501
-492 -501 -139 130 c-319 299 -346 318 -746 545 -211 119 -411 250 -591 386
-177 133 -222 173 -589 520 -163 153 -408 383 -545 510 -297 275 -368 364
-426 533 -35 102 -46 108 287 -173 71 -60 253 -201 404 -314 250 -187 367
-279 518 -407 41 -35 61 -45 88 -45 60 0 105 64 89 128 -12 48 -200 207 -615
517 -277 208 -350 266 -715 575 -301 254 -478 417 -527 484 -33 46 -35 84 -8
143 36 80 126 104 251 67z m4415 -2805 l45 -31 -42 -46 c-23 -26 -269 -280
-547 -565 l-505 -518 -43 42 -44 43 68 70 c121 128 1015 1036 1019 1036 3 0
25 -14 49 -31z"/>
<path d="M6805 2785 c-76 -41 -115 -104 -115 -184 0 -190 231 -272 358 -127
35 40 47 85 40 157 -6 56 -25 87 -82 133 -32 26 -47 31 -104 34 -48 2 -76 -2
-97 -13z"/>
</g>
</svg>
