<?xml version="1.0" standalone="no"?>
<!DOCTYPE svg PUBLIC "-//W3C//DTD SVG 20010904//EN"
 "http://www.w3.org/TR/2001/REC-SVG-20010904/DTD/svg10.dtd">
<svg version="1.0" xmlns="http://www.w3.org/2000/svg"
 width="850.000000pt" height="850.000000pt" viewBox="0 0 850.000000 850.000000"
 preserveAspectRatio="xMidYMid meet">

<g transform="translate(0.000000,850.000000) scale(0.100000,-0.100000)"
fill="#000000" stroke="none">
<path d="M5645 8244 c-140 -31 -224 -88 -346 -234 l-46 -55 -55 50 c-123 113
-295 158 -457 120 -246 -58 -401 -235 -428 -490 l-8 -70 -90 -6 c-196 -13
-302 -72 -403 -223 -58 -87 -91 -175 -99 -268 -7 -77 3 -133 58 -338 50 -187
70 -275 60 -264 -4 5 -40 56 -79 114 -144 213 -310 378 -527 522 -300 200
-559 281 -890 280 -328 -1 -636 -92 -900 -267 -132 -88 -326 -300 -422 -463
-148 -251 -266 -593 -280 -808 -7 -115 0 -155 36 -193 24 -25 37 -31 71 -31
34 0 48 6 75 33 27 27 34 43 40 93 44 404 205 765 450 1009 189 190 386 297
660 361 105 24 141 28 285 28 225 1 362 -30 556 -124 229 -111 498 -346 637
-555 126 -191 224 -429 274 -664 25 -114 27 -147 28 -346 0 -225 -10 -344 -46
-535 -106 -560 -340 -1063 -743 -1600 -198 -262 -509 -595 -696 -744 -176
-139 -355 -226 -550 -266 -275 -57 -558 31 -745 232 -103 109 -149 221 -185
447 -10 61 -18 80 -45 110 -29 32 -39 36 -79 35 -52 -1 -89 -22 -117 -67 -17
-27 -20 -43 -15 -107 6 -100 50 -268 92 -357 108 -227 374 -428 668 -503 305
-78 605 -29 930 153 206 115 434 321 679 612 69 83 147 176 174 207 44 52 73
72 73 49 0 -51 47 -261 79 -350 57 -160 101 -245 201 -395 156 -231 248 -337
590 -676 344 -341 384 -389 456 -546 64 -139 103 -328 125 -619 7 -88 18 -162
26 -178 33 -66 129 -69 188 -6 29 29 30 34 28 114 -2 99 -27 342 -49 470 -24
144 -71 303 -120 403 -54 109 -127 191 -329 371 -327 291 -514 492 -656 705
-140 208 -204 353 -267 606 -31 125 -36 161 -35 260 0 182 17 231 200 580 222
422 364 895 403 1345 6 72 15 142 18 157 l7 28 45 -36 c54 -43 113 -113 159
-188 79 -131 123 -341 136 -646 9 -196 -1 -324 -56 -724 -44 -323 -45 -343
-25 -391 17 -41 42 -55 95 -55 33 0 49 7 77 33 34 31 36 36 54 162 28 185 56
344 62 351 9 8 121 -23 243 -68 158 -58 336 -148 445 -225 113 -81 272 -238
364 -360 111 -146 206 -362 247 -562 25 -123 36 -149 70 -166 50 -26 87 -19
130 24 34 34 39 44 39 86 0 128 -73 372 -170 564 -91 183 -197 316 -367 462
-235 203 -477 335 -808 444 l-160 53 3 242 c6 462 -33 691 -150 871 -91 141
-174 228 -327 339 -18 13 -25 44 -51 235 -40 293 -99 637 -150 870 -23 105
-46 219 -51 254 -21 143 37 269 150 325 63 32 94 38 153 30 105 -14 151 -91
246 -409 213 -712 367 -1420 408 -1878 7 -85 -3 -109 -52 -121 -48 -12 -72
-116 -38 -164 21 -31 86 -62 129 -62 20 0 118 22 218 50 443 121 786 160 1214
140 228 -12 320 -23 453 -54 144 -35 190 -13 190 91 0 70 -12 90 -65 114 -52
23 -56 33 -119 262 -211 768 -421 1789 -402 1953 7 62 28 118 54 148 49 55
174 73 247 35 62 -33 151 -126 189 -199 42 -81 57 -128 151 -475 77 -280 175
-630 345 -1230 267 -941 342 -1371 341 -1960 0 -339 -23 -534 -96 -829 -72
-285 -155 -496 -319 -806 -57 -107 -113 -222 -126 -255 -28 -76 -36 -189 -21
-296 61 -430 148 -952 165 -994 20 -46 61 -75 108 -75 32 0 47 7 73 33 19 19
37 46 41 60 3 16 -5 86 -20 165 -30 160 -54 325 -96 655 -42 336 -45 322 128
677 125 256 169 361 231 555 98 302 156 636 171 976 21 493 -23 859 -190 1574
-27 117 -70 274 -190 695 -54 190 -142 503 -195 695 -206 749 -250 895 -302
999 -63 126 -182 218 -356 276 -53 18 -80 22 -130 17 -66 -6 -175 -40 -244
-76 -23 -11 -44 -21 -47 -21 -2 0 -7 24 -11 53 -30 225 -80 361 -166 452 -130
138 -344 202 -534 159z m161 -225 c114 -21 211 -97 259 -202 13 -29 31 -101
40 -162 91 -601 168 -986 376 -1864 56 -234 116 -487 134 -561 19 -74 33 -136
31 -137 -2 -2 -81 1 -177 7 -96 5 -244 10 -329 10 l-156 0 -118 593 c-180 898
-314 1497 -408 1817 -25 88 -29 116 -25 173 13 151 120 287 257 323 57 16 47
16 116 3z m-847 -145 c70 -35 160 -120 195 -184 45 -82 202 -695 316 -1233 42
-201 247 -1225 266 -1329 7 -44 20 -39 -151 -68 -71 -12 -192 -38 -269 -57
-76 -19 -140 -32 -142 -30 -7 6 -29 137 -64 372 -77 513 -188 988 -402 1715
-136 463 -140 482 -134 558 18 210 214 341 385 256z"/>
<path d="M2265 6525 c-156 -30 -293 -97 -401 -198 -263 -246 -385 -659 -314
-1070 37 -218 85 -365 130 -397 44 -32 111 -27 148 9 48 48 48 79 1 219 -23
68 -39 125 -36 128 14 14 127 22 189 14 97 -14 170 -52 243 -125 201 -201 205
-523 10 -782 -58 -78 -116 -127 -275 -234 -119 -80 -199 -151 -352 -316 -115
-125 -248 -165 -248 -75 0 9 40 89 90 177 100 179 110 205 146 353 33 142 32
156 -15 203 -43 44 -88 51 -141 24 -39 -20 -45 -34 -69 -148 -22 -111 -46
-168 -138 -326 -92 -158 -112 -211 -113 -292 0 -105 8 -128 65 -186 61 -60
122 -83 226 -83 153 0 268 64 414 230 100 114 161 167 310 268 328 222 474
467 475 794 0 377 -184 645 -505 734 -36 10 -115 18 -199 21 l-139 5 6 97 c16
231 94 409 245 553 111 107 307 188 453 188 183 0 424 -149 559 -345 56 -81
120 -229 152 -350 30 -115 31 -128 32 -320 1 -223 -10 -299 -69 -505 -49 -170
-97 -295 -176 -459 -78 -163 -121 -237 -190 -331 -55 -76 -68 -124 -45 -169
33 -64 130 -82 186 -35 117 99 382 656 469 986 158 599 36 1160 -330 1514
-126 121 -263 196 -421 228 -93 19 -274 20 -373 1z"/>
<path d="M6298 1255 c-90 -25 -171 -94 -210 -180 -37 -82 -30 -169 26 -345 59
-184 84 -238 135 -293 74 -80 207 -118 316 -92 149 37 256 180 242 324 -6 64
-98 364 -132 431 -40 78 -109 131 -202 155 -68 18 -111 18 -175 0z m182 -174
c19 -10 42 -29 52 -42 23 -32 118 -340 118 -385 0 -67 -43 -118 -123 -144 -61
-19 -121 -5 -166 38 -33 32 -44 57 -86 187 -74 227 -68 290 35 343 54 27 123
29 170 3z"/>
</g>
</svg>
