<?xml version="1.0" standalone="no"?>
<!DOCTYPE svg PUBLIC "-//W3C//DTD SVG 20010904//EN"
 "http://www.w3.org/TR/2001/REC-SVG-20010904/DTD/svg10.dtd">
<svg version="1.0" xmlns="http://www.w3.org/2000/svg"
 width="1024.000000pt" height="1024.000000pt" viewBox="0 0 1024.000000 1024.000000"
 preserveAspectRatio="xMidYMid meet">

<g transform="translate(-100.000000,1080.000000) scale(0.120000,-0.11000)"
fill="#000000" stroke="none">
<path d="M4787 9509 c-1118 -92 -2083 -622 -2760 -1517 -487 -643 -798 -1417
-894 -2227 -22 -189 -25 -762 -5 -925 97 -782 382 -1452 860 -2025 42 -49 156
-169 254 -266 l178 -176 0 -609 c0 -414 3 -622 11 -649 32 -116 136 -244 245
-302 113 -60 137 -63 479 -63 338 0 380 5 479 58 66 35 174 143 210 211 49 92
56 136 56 374 0 119 4 217 9 217 5 0 73 -15 152 -34 79 -19 187 -43 241 -52
l96 -17 4 -241 c4 -224 6 -245 27 -301 65 -164 189 -276 358 -320 83 -22 594
-22 677 0 138 36 272 139 330 253 50 100 58 144 65 381 l6 224 185 37 c102 21
209 45 239 54 30 9 56 16 58 16 2 0 3 -84 3 -187 0 -225 10 -295 55 -388 61
-128 172 -222 314 -265 57 -18 93 -20 375 -20 336 0 367 4 475 56 71 35 189
151 225 221 54 108 56 128 56 768 l1 590 116 105 c590 533 1009 1331 1137
2163 36 236 46 364 46 617 0 384 -38 701 -127 1055 -171 684 -484 1309 -913
1824 -662 795 -1591 1273 -2645 1361 -138 11 -535 11 -678 -1z m688 -259 c883
-83 1687 -468 2281 -1093 604 -635 1012 -1529 1120 -2452 22 -184 25 -644 6
-810 -82 -705 -336 -1331 -752 -1855 -168 -211 -430 -460 -659 -625 -947 -682
-2329 -887 -3566 -528 -923 268 -1647 842 -2111 1673 -404 723 -529 1629 -349
2525 245 1215 1025 2293 2022 2793 391 197 899 335 1378 375 97 8 530 6 630
-3z m-2467 -7271 c180 -101 457 -226 625 -283 17 -6 18 -21 15 -253 -3 -282
-9 -306 -86 -375 -70 -63 -110 -70 -424 -66 l-273 3 -55 30 c-60 33 -114 96
-130 153 -6 23 -10 218 -10 519 l0 482 115 -75 c64 -41 164 -102 223 -135z
m4567 -810 c-22 -66 -95 -133 -169 -154 -47 -14 -99 -16 -329 -13 -237 3 -277
6 -315 22 -53 23 -124 101 -140 154 -8 25 -12 122 -12 274 l0 235 93 33 c264
94 563 246 814 415 l68 45 3 -482 c2 -415 0 -489 -13 -529z m-2440 286 c143 0
307 4 363 8 l104 8 -4 -203 c-3 -184 -5 -207 -25 -243 -28 -52 -67 -89 -123
-114 -42 -19 -65 -21 -316 -21 -317 0 -337 4 -407 79 -25 27 -50 66 -56 87 -6
22 -11 123 -11 227 l0 188 108 -8 c59 -4 224 -8 367 -8z"/>
<path d="M4935 8910 c-879 -64 -1665 -508 -2134 -1206 -361 -537 -511 -1156
-440 -1814 104 -956 741 -1803 1657 -2204 200 -88 473 -166 702 -202 140 -21
529 -30 686 -15 642 62 1252 346 1705 794 427 422 694 949 786 1554 24 158 24
585 0 748 -71 482 -242 895 -522 1265 -443 584 -1144 977 -1896 1064 -164 19
-407 26 -544 16z m500 -271 c578 -59 1169 -348 1565 -766 359 -380 574 -838
652 -1388 16 -118 16 -464 0 -585 -103 -741 -485 -1350 -1107 -1765 -506 -338
-1149 -484 -1755 -400 -944 132 -1747 782 -2054 1663 -44 128 -90 314 -113
462 -25 160 -24 528 1 690 143 919 759 1654 1643 1960 373 129 752 171 1168
129z"/>
</g>
</svg>
