<?xml version="1.0" encoding="UTF-8"?>
<svg version="1.1" xmlns="http://www.w3.org/2000/svg" width="1254" height="1254">
  <g fill="none" stroke="#000000" stroke-width="13" stroke-linecap="round">
    <line x1="225.5" y1="319.0" x2="598.0" y2="414.0" stroke-dasharray="20.0 44.1" stroke-dashoffset="10.0"/>
    <line x1="216.5" y1="360.9" x2="601.5" y2="459.9" stroke-dasharray="20.0 29.7" stroke-dashoffset="10.0"/>
    <line x1="216.5" y1="406.0" x2="602.0" y2="507.0" stroke-dasharray="20.0 36.9" stroke-dashoffset="10.0"/>
    <line x1="216.5" y1="451.0" x2="602.5" y2="554.9" stroke-dasharray="20.0 37.1" stroke-dashoffset="10.0"/>
    <line x1="250.0" y1="502.2" x2="603.5" y2="602.8" stroke-dasharray="19.3 26.6" stroke-dashoffset="9.6"/>
    <line x1="215.0" y1="537.0" x2="602.0" y2="651.0" stroke-dasharray="20.0 30.4" stroke-dashoffset="10.0"/>
    <line x1="216.5" y1="583.9" x2="602.5" y2="698.1" stroke-dasharray="20.0 30.3" stroke-dashoffset="10.0"/>
    <line x1="216.5" y1="630.0" x2="556.0" y2="735.5" stroke-dasharray="20.0 39.3" stroke-dashoffset="10.0"/>
    <line x1="215.5" y1="674.4" x2="603.0" y2="793.5" stroke-dasharray="20.0 30.7" stroke-dashoffset="10.0"/>
    <line x1="216.0" y1="719.3" x2="556.0" y2="829.5" stroke-dasharray="18.8 25.9" stroke-dashoffset="9.4"/>
    <line x1="215.5" y1="764.0" x2="603.0" y2="887.2" stroke-dasharray="20.0 38.1" stroke-dashoffset="10.0"/>
    <line x1="250.5" y1="822.5" x2="602.5" y2="934.2" stroke-dasharray="20.0 32.8" stroke-dashoffset="10.0"/>
    <line x1="215.0" y1="853.5" x2="556.0" y2="969.5" stroke-dasharray="20.0 40.0" stroke-dashoffset="10.0"/>
    <line x1="251.5" y1="914.0" x2="555.5" y2="1015.7" stroke-dasharray="20.0 33.4" stroke-dashoffset="10.0"/>
    <line x1="215.0" y1="944.9" x2="602.5" y2="1075.2" stroke-dasharray="20.0 31.1" stroke-dashoffset="10.0"/>
    <line x1="650.0" y1="467.3" x2="1035.0" y2="302.5" stroke-dasharray="20.0 39.8" stroke-dashoffset="10.0"/>
    <line x1="650.0" y1="516.0" x2="1038.1" y2="346.5" stroke-dasharray="20.0 40.5" stroke-dashoffset="10.0"/>
    <line x1="650.5" y1="562.5" x2="1037.5" y2="391.5" stroke-dasharray="20.0 40.4" stroke-dashoffset="10.0"/>
    <line x1="651.0" y1="610.3" x2="1039.2" y2="435.5" stroke-dasharray="20.0 33.2" stroke-dashoffset="10.0"/>
    <line x1="651.0" y1="658.5" x2="1038.5" y2="481.0" stroke-dasharray="20.0 40.9" stroke-dashoffset="10.0"/>
    <line x1="650.5" y1="706.1" x2="1032.5" y2="528.5" stroke-dasharray="20.0 40.2" stroke-dashoffset="10.0"/>
    <line x1="650.5" y1="753.9" x2="1039.0" y2="571.0" stroke-dasharray="20.0 33.7" stroke-dashoffset="10.0"/>
    <line x1="649.5" y1="801.3" x2="1039.0" y2="615.0" stroke-dasharray="20.0 34.0" stroke-dashoffset="10.0"/>
    <line x1="650.0" y1="847.1" x2="1039.0" y2="660.5" stroke-dasharray="20.0 51.9" stroke-dashoffset="10.0"/>
    <line x1="649.5" y1="895.5" x2="1039.2" y2="706.0" stroke-dasharray="20.0 34.2" stroke-dashoffset="10.0"/>
    <line x1="649.5" y1="942.1" x2="1039.4" y2="751.0" stroke-dasharray="20.0 42.0" stroke-dashoffset="10.0"/>
    <line x1="649.5" y1="989.0" x2="1002.0" y2="818.0" stroke-dasharray="20.0 36.0" stroke-dashoffset="10.0"/>
    <line x1="753.5" y1="985.5" x2="1038.0" y2="845.5" stroke-dasharray="20.0 32.8" stroke-dashoffset="10.0"/>
    <line x1="650.0" y1="1082.9" x2="1038.0" y2="891.5" stroke-dasharray="20.0 41.8" stroke-dashoffset="10.0"/>
    <line x1="754.0" y1="1079.5" x2="1039.5" y2="935.5" stroke-dasharray="19.2 26.5" stroke-dashoffset="9.6"/>
  </g>
<path d="M0 0 C1.70833008 0.08024414 1.70833008 0.08024414 3.45117188 0.16210938 C38.06535441 2.24948798 72.26627633 10.61357405 106.17001665 17.47024024 C111.3941292 18.52658749 116.61898899 19.57917114 121.84432983 20.62942505 C122.59624212 20.78055486 123.3481544 20.93168467 124.12285191 21.08739418 C125.6471291 21.39375061 127.17140744 21.70010128 128.69568694 22.00644624 C147.36293087 25.7587959 166.02604317 29.53148543 184.6875 33.3125 C185.9689666 33.5721328 187.2504332 33.83176559 188.57073212 34.09926605 C215.46091084 39.54862535 242.34437143 45.0306218 269.22344971 50.53445435 C283.13263784 53.38233264 297.04357963 56.22151248 310.95564842 59.0552845 C317.58992896 60.40669098 324.22407507 61.75875728 330.8582468 63.11069775 C336.06138793 64.17096871 341.26458386 65.23096875 346.46792603 66.29025269 C356.77781981 68.38944596 367.08650736 70.49430857 377.39256763 72.61225033 C383.11213186 73.78692663 388.83377762 74.95088587 394.5567131 76.10902023 C398.4638015 76.90169045 402.36924554 77.70225609 406.27436066 78.50458527 C408.10627195 78.87932215 409.93882603 79.25093406 411.7720871 79.61901093 C450.99396123 87.50160215 450.99396123 87.50160215 462.6875 102.3125 C467.69476365 110.51257008 468.42222871 118.0023806 468.38998222 127.44780254 C468.40286635 128.82435215 468.41788826 130.20088313 468.43486913 131.57738829 C468.47435691 135.2781748 468.48358687 138.97846473 468.48683474 142.67943701 C468.49545085 146.61251008 468.53201259 150.54533841 468.56488407 154.47826976 C468.62738131 162.55477461 468.65599483 170.63112645 468.67526215 178.70783469 C468.68577721 183.01591317 468.70411689 187.32392171 468.72553492 191.63195825 C468.80556069 208.09032439 468.8270533 224.54837684 468.8191724 241.00689568 C468.81582961 248.38003845 468.81863362 255.75317686 468.82137203 263.12631944 C468.82654056 277.5428718 468.82622228 291.95941963 468.82329312 306.37597238 C468.82074925 318.96121684 468.82013387 331.54645967 468.82131577 344.13170433 C468.82143034 345.39761137 468.82143034 345.39761137 468.82154724 346.68909229 C468.82185869 350.1167347 468.8221771 353.54437711 468.822507 356.97201951 C468.82554155 388.88237961 468.82282916 420.79273685 468.8174101 452.70309651 C468.81264402 480.98411338 468.81311122 509.26512574 468.81787109 537.54614258 C468.82322957 569.48865728 468.82534893 601.4311695 468.82225883 633.37368459 C468.82193818 636.77763347 468.82162534 640.18158235 468.82131577 643.58553123 C468.82123669 644.42338441 468.82115761 645.26123759 468.82107614 646.12448026 C468.81994254 658.73110777 468.82126119 671.33773347 468.82379532 683.94436073 C468.82665676 698.24862648 468.82593391 712.55288709 468.82051457 726.8571522 C468.81758732 734.84570044 468.81737378 742.83423753 468.82116075 750.82278547 C468.82367948 756.79676175 468.82093191 762.77072372 468.81618617 768.74469914 C468.81507385 771.15204526 468.81562673 773.55939288 468.81806196 775.96673802 C468.85780509 818.53298887 468.85780509 818.53298887 457.71484375 830.40625 C453.69765945 834.18348688 449.27697355 837.27644209 444.6875 840.3125 C443.98334961 840.77833496 443.27919922 841.24416992 442.55371094 841.72412109 C417.64842066 858.06983995 391.75310141 872.91330787 365.6875 887.3125 C361.14467494 889.83124782 356.60364009 892.3532159 352.0625 894.875 C350.9288501 895.5038208 349.7952002 896.1326416 348.62719727 896.78051758 C341.50244591 900.73586454 334.39976007 904.72792225 327.3125 908.75 C317.27482509 914.44626738 307.17735648 920.03035833 297.05908203 925.58178711 C290.01316089 929.45382076 283.01259889 933.39511973 276.03881836 937.39477539 C271.04355632 940.25321375 266.02345979 943.0664975 261 945.875 C259.93749023 946.46941895 258.87498047 947.06383789 257.78027344 947.67626953 C247.7583711 953.27933075 237.72736799 958.86592722 227.68359375 964.4296875 C223.45499734 966.77258277 219.23280681 969.12611835 215.01750183 971.49282837 C187.29243496 987.05310044 187.29243496 987.05310044 175.6875 991.3125 C174.83510742 991.62590332 173.98271484 991.93930664 173.10449219 992.26220703 C85.56405249 1023.89332486 -9.71764551 1013.46704362 -102.5 980.5625 C-104.84740427 979.73023156 -107.19498325 978.89845573 -109.54272461 978.06713867 C-116.80320132 975.49311121 -124.05857129 972.90491554 -131.3125 970.3125 C-132.46488159 969.90074524 -133.61726318 969.48899048 -134.80456543 969.0647583 C-145.97823724 965.0710428 -157.14804748 961.0666242 -168.31500244 957.0541687 C-181.36750729 952.36434192 -194.43002289 947.7033962 -207.5 943.0625 C-211.20315737 941.74748695 -214.90629629 940.43242203 -218.609375 939.1171875 C-219.50917084 938.79760574 -220.40896667 938.47802399 -221.33602905 938.14875793 C-230.6452555 934.84111281 -239.94759136 931.51425876 -249.25 928.1875 C-265.63197073 922.32914577 -282.02710216 916.50817434 -298.42504883 910.69473267 C-320.62993599 902.82242587 -342.83295799 894.94593046 -364.99108887 886.94271851 C-370.47895284 884.96408664 -375.97639067 883.0134613 -381.47703552 881.07066345 C-385.76941232 879.55257205 -390.05826304 878.02466589 -394.34671021 876.49551392 C-396.4158865 875.76023712 -398.48654555 875.02911702 -400.55880737 874.30258179 C-434.10335815 862.53493557 -434.10335815 862.53493557 -441.99394226 849.41390991 C-446.03761375 840.92380295 -445.01270338 831.18752854 -444.97192383 822.00244141 C-444.98039293 819.79384722 -444.99103587 817.5852605 -445.00364971 815.3766861 C-445.03206963 809.27331985 -445.02916847 803.17030203 -445.0213356 797.06688929 C-445.01856422 791.07236075 -445.0394111 785.07793945 -445.05930938 779.08345447 C-445.10226766 765.84487363 -445.11622214 752.60637454 -445.11876215 739.36773132 C-445.1211213 727.62362744 -445.13328315 715.87958238 -445.15487671 704.13549805 C-445.15630595 703.35068395 -445.1577352 702.56586986 -445.15920775 701.75727352 C-445.16504549 698.5566465 -445.17092184 695.35601954 -445.17685833 692.15539269 C-445.23177718 662.44471009 -445.260208 632.7340507 -445.27584518 603.02332407 C-445.27633971 602.08395721 -445.27683424 601.14459034 -445.27734375 600.17675781 C-445.27783985 599.23395554 -445.27833595 598.29115328 -445.27884708 597.31978124 C-445.29645693 564.31827854 -445.34266938 531.3168817 -445.40234375 498.31542969 C-445.47892326 455.86070564 -445.54004215 413.4059939 -445.58089733 370.95121956 C-445.58430561 367.43179843 -445.58772228 363.91237732 -445.59115099 360.39295621 C-445.59343169 358.05105603 -445.59569917 355.70915583 -445.59795339 353.36725561 C-445.61506352 335.79602871 -445.64172273 318.22483277 -445.67276001 300.65362549 C-445.70827787 280.48933962 -445.72893928 260.32509559 -445.7308284 240.16077745 C-445.73230279 228.73273124 -445.74498149 217.30482329 -445.77328705 205.87681138 C-445.79121708 198.18211727 -445.79448857 190.48750613 -445.7859372 182.79279614 C-445.78145353 178.38977188 -445.78332502 173.98700133 -445.8027941 169.58401227 C-445.82041623 165.56644556 -445.81943497 161.54932083 -445.80388606 157.5317495 C-445.80151191 156.08756325 -445.80580914 154.6433461 -445.81771064 153.19920693 C-445.91309559 140.86461376 -443.65216589 129.82493141 -435.3125 120.3125 C-425.34344612 111.76481513 -412.09680506 108.08325011 -399.78515625 104.3125 C-398.26199404 103.84013388 -396.73902961 103.36712965 -395.21624756 102.89353943 C-391.12478946 101.62304379 -387.03063835 100.36144475 -382.9359169 99.10151291 C-378.60041522 97.7657543 -374.26752708 96.42156859 -369.93432617 95.07836914 C-361.07456098 92.33356602 -352.21187907 89.59828534 -343.34838867 86.86553955 C-338.64252129 85.41456331 -333.93731304 83.96146244 -329.23242188 82.50732422 C-328.51679455 82.28614772 -327.80116722 82.06497122 -327.06385422 81.8370924 C-325.64422813 81.39831634 -324.22460504 80.95953058 -322.80498505 80.52073479 C-313.80340393 77.73853409 -304.80129802 74.95804347 -295.79785156 72.18188477 C-275.67964153 65.97791758 -255.5734509 59.73586657 -235.47127914 53.4801445 C-208.23122798 45.00324455 -180.97980079 36.56462908 -153.70483398 28.20068359 C-142.03889045 24.6223414 -130.37744276 21.03264258 -118.7421875 17.35546875 C-79.3939404 4.93503843 -41.51321734 -2.49388281 0 0 Z M-112.8125 24.0625 C-115.20653941 24.81330597 -117.60091601 25.56303752 -119.99560547 26.31176758 C-124.95767117 27.86408607 -129.91827754 29.42094541 -134.87792969 30.98095703 C-145.56635328 34.33848468 -156.27378446 37.63430737 -166.98016357 40.934021 C-183.80576747 46.12175464 -200.62233364 51.33822831 -217.43167114 56.57839966 C-233.60672876 61.62080187 -249.79601645 66.61383009 -266 71.5625 C-286.42538227 77.80047572 -306.82829446 84.10899479 -327.22094727 90.453125 C-339.05694857 94.13444948 -350.89604106 97.80492094 -362.74696732 101.4379158 C-367.11398549 102.77715379 -371.48004533 104.11951629 -375.84637451 105.46099854 C-378.20329083 106.18393255 -380.5607373 106.90514084 -382.91876221 107.62445068 C-410.59197504 114.13052984 -410.59197504 114.13052984 -432.3125 130.3125 C-432.98325658 134.16935036 -432.54931689 135.8914922 -430.625 139.3125 C-423.53742745 146.72748759 -412.43282414 148.96712462 -402.87402344 151.48608398 C-401.74435528 151.78678771 -400.61468712 152.08749144 -399.45078659 152.3973074 C-385.58906367 156.06591854 -371.68031157 159.55004545 -357.7709856 163.03259206 C-353.88947539 164.00507621 -350.0087059 164.98050764 -346.12786865 165.95567322 C-336.27339704 168.43137969 -326.41799175 170.90335828 -316.5625 173.375 C-303.65038695 176.61328067 -290.7386969 179.85323609 -277.828125 183.09765625 C-277.04149027 183.29530571 -276.25485553 183.49295516 -275.44438338 183.696594 C-250.91600757 189.86030823 -226.41492753 196.11964327 -201.94362068 202.50671577 C-200.97230642 202.76021734 -200.00099216 203.01371891 -199.00024414 203.27490234 C-198.04921751 203.52312681 -197.09819088 203.77135128 -196.11834526 204.0270977 C-184.59249783 207.02967751 -173.04609581 209.95145463 -161.5 212.875 C-145.88826355 216.83201414 -130.28780025 220.82870258 -114.70201683 224.88666344 C-112.02052887 225.58482263 -109.33892672 226.28254183 -106.65730286 226.98017883 C-92.12772999 230.76088718 -92.12772999 230.76088718 -85.34970093 232.53469849 C-67.86530384 237.11001867 -50.37194406 241.61845629 -32.78125 245.76953125 C-31.75400094 246.0130942 -31.75400094 246.0130942 -30.70599937 246.26157761 C-16.67302967 249.57909106 -2.59066066 252.28147839 11.6875 254.3125 C12.82429199 254.47621094 13.96108398 254.63992188 15.13232422 254.80859375 C49.35915499 259.48753347 86.58826067 260.12705637 120.6875 254.3125 C121.57163574 254.16796387 122.45577148 254.02342773 123.36669922 253.87451172 C132.77074714 252.29756552 141.99590768 250.08963087 151.1875 247.5625 C151.94466309 247.35906982 152.70182617 247.15563965 153.48193359 246.94604492 C169.70821209 242.27138726 185.22702695 234.86273751 200.59588623 227.96304321 C205.52644932 225.74981271 210.46299064 223.54996861 215.3984375 221.34765625 C216.37523468 220.91134384 217.35203186 220.47503143 218.35842896 220.02549744 C226.57739725 216.35577439 234.81298229 212.72545948 243.0625 209.125 C243.69407013 208.84927155 244.32564026 208.57354309 244.97634888 208.28945923 C248.20293186 206.88118748 251.43010731 205.47428125 254.65771484 204.06835938 C258.1713514 202.53777718 261.68396551 201.00486217 265.19633484 199.47137451 C293.6731681 187.03864786 322.17023752 174.6522043 350.6875 162.3125 C351.65143677 161.89530701 352.61537354 161.47811401 353.60852051 161.04827881 C359.77760562 158.37918823 365.94950737 155.71673255 372.125 153.0625 C373.37059692 152.52695496 373.37059692 152.52695496 374.64135742 151.98059082 C384.74464926 147.6426736 394.88077465 143.39233847 405.0546875 139.22265625 C406.09514725 138.79570465 407.13560699 138.36875305 408.20759583 137.92886353 C413.24335812 135.86390166 418.28237269 133.80763543 423.32788086 131.76660156 C441.04181087 125.76143369 441.04181087 125.76143369 454.6875 114.3125 C455.04618159 112.18277179 455.04618159 112.18277179 454.875 110.0625 C454.7821875 108.20625 454.7821875 108.20625 454.6875 106.3125 C442.18218864 92.6348157 422.85652558 90.2459934 405.515625 86.765625 C403.4174188 86.33732721 401.31938061 85.90820564 399.22149658 85.47833252 C393.55802091 84.3202116 387.89229565 83.17346829 382.22610474 82.02871704 C376.26584836 80.82235535 370.30785541 79.60491626 364.34960938 78.38867188 C351.04211017 75.67434488 337.73186755 72.97364058 324.42106515 70.2755658 C312.13834631 67.78577126 299.8563999 65.29216769 287.5746181 62.79775548 C286.22670348 62.52399704 284.87878609 62.25025227 283.53086591 61.97652125 C263.50153921 57.90896001 243.47827535 53.81365019 223.46456909 49.66995239 C192.41086008 43.24052771 161.32108928 36.996905 130.21972656 30.80249023 C129.27336712 30.613996 128.32700768 30.42550177 127.35197067 30.23129559 C121.71759047 29.1090709 121.71759047 29.1090709 116.08315277 27.98713493 C104.94891675 25.76992347 93.81868307 23.53480962 82.69585991 21.26101875 C48.3766859 14.16770688 48.3766859 14.16770688 13.6875 9.3125 C12.88401123 9.21517578 12.08052246 9.11785156 11.25268555 9.01757812 C1.5412375 7.95061471 -8.24224897 8.06866099 -18 8.0625 C-18.95958618 8.06182526 -19.91917236 8.06115051 -20.90783691 8.06045532 C-52.99139692 8.09627034 -82.30805913 14.38919351 -112.8125 24.0625 Z M458.6875 118.3125 C458.048125 119.034375 457.40875 119.75625 456.75 120.5 C448.92769325 128.20597501 436.88880748 131.92992304 427 136.3125 C425.29785365 137.07029717 423.59578757 137.82827469 421.89379883 138.58642578 C409.15083706 144.25453423 396.36500265 149.82084031 383.55859375 155.34375 C372.90777962 159.93827704 362.29844314 164.62681595 351.6875 169.3125 C346.89134588 171.43037264 342.09514945 173.54814923 337.29873657 175.66543579 C335.84914812 176.30533541 334.39958352 176.94528905 332.95004272 177.58529663 C321.7243443 182.54112494 310.48587038 187.4670991 299.24026489 192.37756348 C290.1649879 196.34121968 281.10664425 200.34065781 272.0625 204.375 C261.99867874 208.8636358 251.90011641 213.26738725 241.78320312 217.63452148 C232.85070983 221.49142153 223.94666128 225.40778935 215.0625 229.375 C211.73547866 230.85397488 208.40759887 232.33099057 205.07910156 233.80664062 C202.7723584 234.83082662 200.46707033 235.85829481 198.16308594 236.88867188 C160.3599816 253.75197313 122.1213149 262.24941302 80.6875 263.3125 C79.91970215 263.33441406 79.1519043 263.35632813 78.36083984 263.37890625 C46.07301642 264.17368344 13.61221245 260.773747 -17.98046875 254.24609375 C-18.70146318 254.09779869 -19.42245762 253.94950363 -20.16530037 253.79671478 C-37.04292645 250.30559789 -53.70688827 246.04695612 -70.37614059 241.68273163 C-74.45876776 240.61604062 -78.54406633 239.55967654 -82.62915039 238.50244141 C-89.03899232 236.84263405 -95.44771872 235.17860635 -101.85546875 233.51074219 C-111.17882792 231.08457656 -120.50877671 228.68464004 -129.84332275 226.30187988 C-132.27580399 225.68091272 -134.7079902 225.05880019 -137.14013672 224.43652344 C-147.48844218 221.79053849 -157.84128499 219.16255766 -168.1953125 216.5390625 C-169.54216045 216.19777082 -170.88900798 215.85647747 -172.2358551 215.5151825 C-173.61272158 215.16628955 -174.98958824 214.81739735 -176.36645508 214.46850586 C-177.05952035 214.29288463 -177.75258562 214.11726339 -178.46665287 213.9363203 C-179.16622828 213.75905061 -179.8658037 213.58178091 -180.58657837 213.3991394 C-181.29176731 213.22044689 -181.99695625 213.04175438 -182.72351456 212.85764694 C-184.1614925 212.49328971 -185.59947828 212.12896339 -187.03747177 211.76466751 C-203.6607705 207.55334316 -220.28078887 203.33014338 -236.88671875 199.05078125 C-238.29096818 198.68903976 -239.6952193 198.32730479 -241.09947205 197.96557617 C-246.87801284 196.47684628 -252.65650684 194.98793817 -258.43441772 193.49676514 C-279.25783989 188.1243189 -300.10473094 182.84916479 -320.9675293 177.63180351 C-325.03608829 176.61422276 -329.10426448 175.59511759 -333.17236328 174.57569885 C-335.21458837 174.06400361 -337.25681627 173.55231964 -339.29904461 173.04063737 C-340.66352745 172.6987558 -342.0280046 172.35685154 -343.39247608 172.01492465 C-351.51933778 169.97857817 -359.64771005 167.94849573 -367.77856553 165.92815322 C-373.54750469 164.4941639 -379.31400716 163.05054038 -385.07975388 161.60376549 C-387.47165483 161.00535742 -389.8643826 160.41024315 -392.25798416 159.81867409 C-423.45887473 152.10367866 -423.45887473 152.10367866 -434.3125 143.3125 C-434.6425 142.6525 -434.9725 141.9925 -435.3125 141.3125 C-435.9725 141.3125 -436.6325 141.3125 -437.3125 141.3125 C-437.36572527 252.67509674 -437.38917566 364.03766601 -437.32896903 522.21320998 C-437.31925002 545.02025336 -437.31097037 567.82729268 -437.31109619 590.63433838 C-437.31109536 592.57372709 -437.31109412 594.5131158 -437.31109244 596.45250452 C-437.311094 598.36278049 -437.31109557 600.27305647 -437.31109715 602.18333244 C-437.31112211 636.02166077 -437.29506479 669.85985952 -437.23061466 703.69813347 C-437.22496084 706.70162826 -437.21937407 709.70512316 -437.21383667 712.70861816 C-437.21246833 713.44382892 -437.21109998 714.17903967 -437.20969018 714.93652953 C-437.18832705 726.67838593 -437.18720294 738.42015678 -437.19389334 750.1620271 C-437.20003858 761.74310904 -437.18431658 773.32393946 -437.14616424 784.90497178 C-437.12651824 791.03316686 -437.11610331 797.16097934 -437.1320591 803.28919411 C-437.14619857 808.79417199 -437.13314029 814.2983625 -437.0975436 819.80323744 C-437.0896092 821.77759438 -437.09178718 823.75202332 -437.10510933 825.72635126 C-437.6178201 838.36656528 -437.6178201 838.36656528 -431.77864265 849.04967403 C-431.29481558 849.4664066 -430.8109885 849.88313917 -430.3125 850.3125 C-429.39597656 851.31796875 -429.39597656 851.31796875 -428.4609375 852.34375 C-423.71176955 856.27698161 -418.62414671 858.60356411 -412.9453125 860.83203125 C-412.08707886 861.1717244 -411.22884521 861.51141754 -410.34460449 861.86140442 C-397.67077471 866.81043988 -384.80233486 871.2444418 -371.96429443 875.7449646 C-366.10309406 877.80158009 -360.24576864 879.86923527 -354.38766479 881.93465042 C-352.23325273 882.69410636 -350.07867132 883.45308037 -347.92407227 884.21200562 C-338.03554246 887.69644418 -328.16462259 891.22642666 -318.3125 894.8125 C-301.64099092 900.8744646 -284.91307285 906.77684441 -268.1875 912.6875 C-262.51425922 914.69252813 -256.84105696 916.6976652 -251.16796875 918.703125 C-250.13342906 919.06883291 -250.13342906 919.06883291 -249.07798958 919.44192886 C-236.8785586 923.75483078 -224.68502687 928.08405387 -212.5 932.4375 C-211.24210663 932.88684906 -211.24210663 932.88684906 -209.95880127 933.34527588 C-201.51961638 936.36127781 -193.08514704 939.38987274 -184.66015625 942.4453125 C-181.79431446 943.48449539 -178.92846087 944.52364556 -176.0625 945.5625 C-175.35767487 945.81798615 -174.65284973 946.07347229 -173.92666626 946.33670044 C-157.03673024 952.45313095 -140.0884432 958.40432477 -123.13696289 964.34765625 C-120.8347833 965.1549055 -118.5326184 965.96219662 -116.23046875 966.76953125 C-115.11118484 967.16202057 -113.99190094 967.55450989 -112.83869934 967.95889282 C-106.27502627 970.26340822 -99.72050617 972.59146059 -93.17578125 974.94921875 C-5.75817411 1006.4089968 98.28899792 1018.8963145 185.1875 978.625 C193.78544352 974.49460526 202.03114852 969.69595278 210.30078125 964.953125 C217.36424388 960.90796039 224.49221639 956.98354794 231.625 953.0625 C239.6340866 948.65540871 247.63764014 944.24068953 255.59570312 939.74194336 C261.92070427 936.17038384 268.273564 932.64927784 274.625 929.125 C291.47417614 919.7734403 308.29524686 910.37276833 325.0625 900.875 C333.37361924 896.16795087 341.7102479 891.50865313 350.0625 886.875 C377.00764842 871.92302387 403.62879826 856.76766145 429.6875 840.3125 C430.44885254 839.83296875 431.21020508 839.3534375 431.99462891 838.859375 C435.91944373 836.38388031 439.81964192 833.87658569 443.6875 831.3125 C444.4815625 830.7865625 445.275625 830.260625 446.09375 829.71875 C453.44658788 824.5607891 458.34894254 818.07536997 460.6875 809.3125 C461.10490884 805.38884693 461.08525713 801.49500042 461.05664349 797.55213165 C461.06183579 795.79081876 461.06183579 795.79081876 461.06713298 793.99392378 C461.0737001 790.73792942 461.06683974 787.48228407 461.05429858 784.22631753 C461.04397269 780.68298609 461.05111279 777.13968255 461.05603105 773.59634542 C461.062247 767.38747215 461.05732998 761.17868517 461.04511642 754.96982193 C461.02700584 745.73749738 461.02610952 736.50522722 461.02874239 727.27288815 C461.03268369 711.74239988 461.0226614 696.2119499 461.00469017 680.68147278 C460.98694114 665.30361237 460.97539274 649.92576791 460.97213173 634.54789734 C460.97192551 633.59186798 460.97171929 632.63583862 460.97150682 631.65083867 C460.97049183 626.79567936 460.96958768 621.94052004 460.9687262 617.08536071 C460.9624244 582.69328951 460.94221076 548.30123915 460.91381836 513.90917969 C460.88626679 480.49707144 460.8650151 447.08496889 460.85229492 413.67285156 C460.85190034 412.64300519 460.85150576 411.61315882 460.85109923 410.55210499 C460.84714368 400.20999604 460.84331624 389.86788705 460.83958265 379.52577802 C460.83197394 358.45757404 460.82351019 337.38937043 460.81452942 316.32116699 C460.81411755 315.35247795 460.81370568 314.38378892 460.81328133 313.38574567 C460.78567778 248.69465511 460.73814199 184.00357612 460.6875 119.3125 C460.0275 118.9825 459.3675 118.6525 458.6875 118.3125 Z " fill="#000000" transform="translate(617.3125,123.6875)"/>
    <path d="M0 0 C0.79852386 -0.00100708 1.59704773 -0.00201416 2.41976929 -0.00305176 C15.05155543 0.00770718 27.29551835 0.60445732 39.6875 3.25 C40.39084473 3.39453613 41.09418945 3.53907227 41.81884766 3.68798828 C51.59442819 5.76452303 60.93404264 8.8281792 68.375 15.75 C70.06857588 18.97585883 70.34830306 20.65229445 69.6875 24.25 C64.3625905 32.94735218 54.90658273 35.39348717 45.5625 37.9375 C44.83015137 38.13996338 44.09780273 38.34242676 43.34326172 38.55102539 C29.24079665 42.16013716 14.96760187 42.6266723 0.5 42.5625 C-0.35490021 42.56067719 -1.20980042 42.55885437 -2.09060669 42.55697632 C-22.64779965 42.48326192 -49.63430228 42.38061151 -66.3125 28.25 C-69.37230795 23.58226637 -69.37230795 23.58226637 -68.75 20.125 C-67.30411485 15.27933085 -64.54463589 12.86781601 -60.3125 10.25 C-41.9776918 0.94738345 -20.14031886 0.01762625 0 0 Z M-62.3125 17.25 C-62.6425 19.56 -62.9725 21.87 -63.3125 24.25 C-48.78526387 38.77723613 -20.4139687 39.01156786 -1.08105469 39.29785156 C31.78653209 39.25282211 31.78653209 39.25282211 61.375 26.6875 C63.5388222 24.40671444 64.45829658 23.34424619 64.6875 20.25 C59.02042705 11.5469951 48.72457436 9.0940564 39.01757812 6.92358398 C26.43540093 4.37855269 14.04929271 3.84638622 1.25 3.875 C0.37442444 3.87521149 -0.50115112 3.87542297 -1.40325928 3.87564087 C-33.79626495 3.83673843 -33.79626495 3.83673843 -62.3125 17.25 Z " fill="#000000" transform="translate(620.3125,157.75)"/>
    <path d="M0 0 C0 1.98 0 3.96 0 6 C5.94 6 11.88 6 18 6 C18.495 7.485 18.495 7.485 19 9 C13.03325384 10.32594359 7.07416385 10.0884587 1 10 C0.67 11.98 0.34 13.96 0 16 C-2.31 16 -4.62 16 -7 16 C-7 14.02 -7 12.04 -7 10 C-8.03640625 10.01160156 -9.0728125 10.02320313 -10.140625 10.03515625 C-11.51041486 10.04453837 -12.88020668 10.05363812 -14.25 10.0625 C-15.27287109 10.07506836 -15.27287109 10.07506836 -16.31640625 10.08789062 C-19.69342554 10.10428392 -22.77291639 10.05628768 -26 9 C-25.67 8.01 -25.34 7.02 -25 6 C-19.06 6 -13.12 6 -7 6 C-7 4.02 -7 2.04 -7 0 C-4.3333581 -1.33332095 -2.83319697 -0.67102033 0 0 Z " fill="#000000" transform="translate(624,171)"/>
    <path d="M0 0 C2.74449592 2.64309829 4.44273598 4.58630516 5.0234375 8.40234375 C4.37987836 12.99919477 2.59553422 15.8683155 -1.00390625 18.83984375 C-28.89104248 37.70640526 -73.99465846 35.40007098 -105.4140625 29.52734375 C-116.86422387 27.28921023 -131.36076872 23.50668555 -138.7890625 13.71484375 C-139.76409213 10.30224003 -139.29887939 7.94863573 -138.4140625 4.52734375 C-132.93992049 -4.72206861 -121.80861049 -7.61899689 -111.9765625 -10.22265625 C-79.98353283 -18.29542916 -27.89118077 -21.98409663 0 0 Z M-133.4140625 5.52734375 C-133.4140625 7.83734375 -133.4140625 10.14734375 -133.4140625 12.52734375 C-115.80726832 29.64506031 -82.90471596 29.00937632 -60.1796875 28.71484375 C-41.95053904 28.30952639 -16.73610578 27.015021 -2.6875 14.0546875 C-0.96422157 11.98781061 -0.49253937 10.19555727 -0.4140625 7.52734375 C-2.83527683 2.23093739 -6.27016838 -0.10646495 -11.4140625 -2.47265625 C-27.53175128 -8.26816562 -44.34009715 -10.85944986 -61.4140625 -11.47265625 C-62.40792969 -11.51390625 -63.40179687 -11.55515625 -64.42578125 -11.59765625 C-86.63502309 -12.06216327 -116.62978774 -10.87547022 -133.4140625 5.52734375 Z " fill="#000000" transform="translate(929.4140625,234.47265625)"/>
    <path d="M0 0 C2.58346332 2.65542608 3.26410294 4.82091205 3.96484375 8.44140625 C3.60470406 12.83846058 1.74238886 15.51927949 -1.3046875 18.62109375 C-11.63715286 26.72435005 -25.1782003 29.91872175 -37.78515625 32.56640625 C-38.54425293 32.73156738 -39.30334961 32.89672852 -40.08544922 33.06689453 C-67.00502278 38.6184466 -98.90020338 37.8646089 -125.78515625 32.56640625 C-126.54779785 32.4271875 -127.31043945 32.28796875 -128.09619141 32.14453125 C-136.24233102 30.63125139 -143.84949279 28.38779762 -151.47265625 25.12890625 C-152.12032959 24.85272461 -152.76800293 24.57654297 -153.43530273 24.29199219 C-158.42559816 22.02230766 -162.88095446 19.16304506 -166.16015625 14.69140625 C-167.47745913 10.21257646 -167.32145213 6.76088343 -165.41015625 2.50390625 C-149.26506648 -15.56321801 -114.89881419 -16.97560713 -92.29296875 -18.2734375 C-63.89488004 -19.57000948 -23.3649259 -18.76351818 0 0 Z M-121.78515625 -8.43359375 C-122.51154297 -8.25666992 -123.23792969 -8.07974609 -123.98632812 -7.89746094 C-133.32319541 -5.52013193 -142.99741008 -2.71348235 -148.84765625 5.44140625 C-150.06771223 7.61438412 -150.06771223 7.61438412 -149.09765625 10.25390625 C-146.75582651 16.16423846 -143.18576531 18.59000245 -137.53515625 21.12890625 C-103.84844038 34.20873 -59.86701602 33.89662222 -26.09765625 21.25390625 C-21.12943445 19.04277457 -17.49261849 16.34994626 -14.78515625 11.56640625 C-14.13093985 9.43732891 -14.13093985 9.43732891 -13.78515625 7.56640625 C-18.14974936 -0.25348974 -24.73809786 -3.47021444 -33.171875 -5.90820312 C-34.03425781 -6.14345703 -34.89664063 -6.37871094 -35.78515625 -6.62109375 C-36.61660156 -6.86794922 -37.44804688 -7.11480469 -38.3046875 -7.36914062 C-52.65386585 -11.40283019 -67.24085356 -11.81157511 -82.03515625 -11.74609375 C-83.31992355 -11.74335953 -83.31992355 -11.74335953 -84.63064575 -11.74057007 C-97.18985438 -11.69558545 -109.52691802 -11.44858384 -121.78515625 -8.43359375 Z " fill="#000000" transform="translate(716.78515625,237.43359375)"/>
    <path d="M0 0 C2.23997481 3.28996301 3.01865262 5.08602138 2.9375 9.0625 C1.50529934 13.55006207 -0.8279497 16.20401764 -4.71484375 18.84375 C-37.84545966 35.87087866 -82.92277482 34.73301505 -117.90234375 24.3828125 C-125.89761963 21.80915473 -133.53896278 18.38378575 -138 11 C-138.70405109 7.24506084 -138.21265399 5.46397235 -136.625 2 C-124.37310357 -12.00216734 -100.37452943 -14.23583449 -82.875 -15.6875 C-57.7094736 -17.06958841 -20.09909948 -17.91441475 0 0 Z M-132 4 C-132.95547581 6.67108098 -132.95547581 6.67108098 -133 9 C-125.20427756 20.04394012 -112.06071146 22.2764862 -99.43261719 24.59326172 C-72.21481984 29.14412988 -31.11937948 32.02481356 -7.44921875 15.26953125 C-5.31133453 13.39672162 -3.60336744 11.33824419 -2 9 C-2 6.24915089 -2.50146645 4.5349433 -4.390625 2.5078125 C-29.69806532 -18.01460759 -107.88635949 -22.06880056 -132 4 Z " fill="#000000" transform="translate(473,240)"/>
    <path d="M0 0 C1.98 0.495 1.98 0.495 4 1 C4 2.32 4 3.64 4 5 C2.35 5 0.7 5 -1 5 C-0.67 3.35 -0.34 1.7 0 0 Z " fill="#000000" transform="translate(404,234)"/>
    <path d="M0 0 C2.31 0.66 4.62 1.32 7 2 C7 2.66 7 3.32 7 4 C3.37673261 5.2077558 2.35853631 4.54311128 -1 3 C-0.67 2.01 -0.34 1.02 0 0 Z " fill="#000000" transform="translate(385,237)"/>
    <path d="M0 0 C-0.33 0.99 -0.66 1.98 -1 3 C-2.65 3.33 -4.3 3.66 -6 4 C-6 2.68 -6 1.36 -6 0 C-3 -1 -3 -1 0 0 Z " fill="#000000" transform="translate(426,238)"/>
    <path d="M0 0 C1.6406543 -0.0309375 1.6406543 -0.0309375 3.31445312 -0.0625 C4.37212891 -0.06765625 5.42980469 -0.0728125 6.51953125 -0.078125 C7.48608643 -0.0874707 8.4526416 -0.09681641 9.44848633 -0.10644531 C12.64874076 0.3100242 14.55255986 1.43321342 17.1875 3.25 C15.1875 6.25 15.1875 6.25 13.20703125 6.73828125 C9.4213621 7.37983708 5.70225326 7.4341339 1.875 7.4375 C0.7931543 7.45586914 0.7931543 7.45586914 -0.31054688 7.47460938 C-5.45645477 7.48845487 -9.8638815 6.66468981 -14.8125 5.25 C-14.4825 3.93 -14.1525 2.61 -13.8125 1.25 C-9.72927778 -0.79161111 -4.48777192 0.02093421 0 0 Z " fill="#000000" transform="translate(860.8125,239.75)"/>
    <path d="M0 0 C0.33 1.32 0.66 2.64 1 4 C-2.14560526 7.77472631 -5.21978243 9.28561324 -10 10 C-17.09816874 10.60387406 -22.50984744 9.93893701 -29 7 C-29.33 5.02 -29.66 3.04 -30 1 C-21.70470408 -5.89380756 -8.95879736 -5.42242998 0 0 Z " fill="#000000" transform="translate(420,244)"/>
    <path d="M0 0 C2.64 0 5.28 0 8 0 C8.33 0.99 8.66 1.98 9 3 C5.7 3 2.4 3 -1 3 C-0.67 2.01 -0.34 1.02 0 0 Z " fill="#000000" transform="translate(376,245)"/>
    <path d="M0 0 C0.33 0.99 0.66 1.98 1 3 C-2.3 3 -5.6 3 -9 3 C-9 2.34 -9 1.68 -9 1 C-6.04335481 -0.4783226 -3.25770263 -0.06032783 0 0 Z " fill="#000000" transform="translate(434,245)"/>
    <path d="M0 0 C1.98 0.66 3.96 1.32 6 2 C6 2.99 6 3.98 6 5 C0.25 4.125 0.25 4.125 -2 3 C-2 2.34 -2 1.68 -2 1 C-1.34 0.67 -0.68 0.34 0 0 Z " fill="#000000" transform="translate(420,252)"/>
    <path d="M0 0 C-1.32 1.32 -2.64 2.64 -4 4 C-5.65 4 -7.3 4 -9 4 C-8.67 3.01 -8.34 2.02 -8 1 C-5.29120665 -0.35439668 -2.99066732 -0.06501451 0 0 Z " fill="#000000" transform="translate(392,253)"/>
    <path d="M0 0 C1.65 0 3.3 0 5 0 C5.33 0.99 5.66 1.98 6 3 C5.67 3.66 5.34 4.32 5 5 C3.35 5 1.7 5 0 5 C0 3.35 0 1.7 0 0 Z " fill="#000000" transform="translate(403,255)"/>
    <path d="M0 0 C0.85295654 0.00149048 1.70591309 0.00298096 2.5847168 0.0045166 C26.04259611 0.0780626 57.02361147 0.82378431 75.3515625 17.56640625 C78.0381703 20.64567212 78.88883496 22.56541226 78.8125 26.6875 C77.38681695 32.20014114 74.48224605 35.27384547 69.81640625 38.2890625 C50.61241814 47.65794456 30.07304918 50.59468246 8.875 51.3125 C7.27978516 51.374375 7.27978516 51.374375 5.65234375 51.4375 C-19.24426224 51.92151664 -52.3226885 50.63640869 -72.5234375 34.0234375 C-75.48505017 30.85956836 -76.11591492 28.86669002 -76.1875 24.5 C-75.45287927 20.27983836 -73.82085706 17.87252625 -70.64453125 15.0390625 C-50.47176203 1.21524235 -23.62682925 -0.10244508 0 0 Z M-69.125 20.3125 C-70.57647903 23.21545805 -70.49739025 25.08511779 -70.125 28.3125 C-65.96775603 35.98741195 -57.02095011 38.53613807 -49.07324219 40.93066406 C-32.36867007 45.56341963 -15.67732539 46.69931574 1.5625 46.625 C2.441409 46.62317719 3.32031799 46.62135437 4.2258606 46.61947632 C26.27303483 46.54253289 53.46905933 46.02240105 71.375 31.25 C73.04829318 29.08866297 73.79438357 28.05345874 73.875 25.3125 C71.93487861 19.23345297 68.24557351 17.09340446 62.875 14.3125 C55.57870345 10.92607115 48.25527508 9.11031245 40.375 7.625 C38.77978516 7.30692383 38.77978516 7.30692383 37.15234375 6.98242188 C25.16069438 4.65030356 13.49590049 4.10713941 1.3125 4.125 C0.55421906 4.12560425 -0.20406189 4.1262085 -0.98532104 4.12683105 C-21.67567808 4.1716716 -53.5674516 4.32279748 -69.125 20.3125 Z " fill="#000000" transform="translate(649.125,295.6875)"/>
    <path d="M0 0 C0 1.32 0 2.64 0 4 C-14.85 4 -29.7 4 -45 4 C-45.33 3.01 -45.66 2.02 -46 1 C-41.4138428 -3.5861572 -6.66743704 -3.33371852 0 0 Z " fill="#000000" transform="translate(673,319)"/>
</svg>
